<!--?xml version="1.0" standalone="no"?-->
              <svg id="sw-js-blob-svg" viewBox="0 0 100 100" xmlns="http://www.w3.org/2000/svg" version="1.1">
                    <defs> 
                        <linearGradient id="sw-gradient" x1="0" x2="1" y1="1" y2="0">
                            <stop id="stop1" stop-color="rgba(243.075, 53.735, 208.65, 1)" offset="0%"></stop>
                            <stop id="stop2" stop-color="rgba(180.004, 25.299, 233.968, 1)" offset="100%"></stop>
                        </linearGradient>
                    </defs>
                <path fill="url(#sw-gradient)" d="M5.1,-6C7.1,-4.5,9.3,-3.3,12.7,0.1C16.1,3.5,20.7,9,20.6,14.4C20.5,19.8,15.8,25.1,10.7,24.8C5.7,24.6,0.5,19,-5.9,16.5C-12.3,14.1,-19.9,15,-27.2,11.3C-34.5,7.7,-41.7,-0.5,-41.3,-8.1C-40.9,-15.7,-32.9,-22.7,-24.8,-23.1C-16.6,-23.5,-8.3,-17.4,-3.4,-13.4C1.6,-9.4,3.2,-7.5,5.1,-6Z" width="100%" height="100%" transform="translate(50 50)" stroke-width="0" style="transition: all 0.3s ease 0s;"></path>
              </svg>